<svg width="16" height="13" viewBox="0 0 16 13" fill="none" xmlns="http://www.w3.org/2000/svg">
<path d="M2.24219 12.7354C0.765625 12.7354 0 11.9766 0 10.5137V2.18066C0 0.745117 0.751953 0 2.03027 0H3.96484C4.67578 0 5.03125 0.129883 5.50977 0.526367L5.90625 0.84082C6.28223 1.14844 6.56934 1.26465 7.06152 1.26465H13.4189C14.8955 1.26465 15.6611 2.02344 15.6611 3.48633V10.5137C15.6611 11.9766 14.9023 12.7354 13.5967 12.7354H2.24219ZM2.32422 11.3955H13.3438C13.9727 11.3955 14.3213 11.0674 14.3213 10.4043V3.60254C14.3213 2.93262 13.9727 2.60449 13.3438 2.60449H6.70605C5.99512 2.60449 5.62598 2.47461 5.1543 2.08496L4.75781 1.76367C4.375 1.44922 4.09473 1.33984 3.60938 1.33984H2.29688C1.68164 1.33984 1.33984 1.66797 1.33984 2.29688V10.4043C1.33984 11.0674 1.68848 11.3955 2.32422 11.3955ZM2.17383 4.55957V4.07422C2.17383 3.64355 2.39258 3.44531 2.83008 3.44531H12.8311C13.2686 3.44531 13.4805 3.64355 13.4805 4.07422V4.55957H2.17383Z" fill="white" fill-opacity="0.8" style="fill:white;fill-opacity:0.8;"/>
</svg>
