<svg width="24" height="24" viewBox="0 0 24 24" fill="none" xmlns="http://www.w3.org/2000/svg">
<path d="M15.5723 12.0273C13.9248 12.0273 12.585 10.5781 12.585 8.79395C12.585 7.03711 13.9316 5.61523 15.5723 5.61523C17.2266 5.61523 18.5664 7.0166 18.5664 8.78027C18.5664 10.5713 17.2266 12.0273 15.5723 12.0273ZM7.64941 12.1025C6.2207 12.1025 5.05176 10.8311 5.05176 9.25879C5.05176 7.73438 6.22754 6.46973 7.64941 6.46973C9.0918 6.46973 10.2539 7.71387 10.2539 9.24512C10.2539 10.8242 9.0918 12.1025 7.64941 12.1025ZM15.5723 10.8447C16.5293 10.8447 17.3291 9.93555 17.3291 8.78027C17.3291 7.65234 16.5361 6.79785 15.5723 6.79785C14.6152 6.79785 13.8223 7.66602 13.8223 8.79395C13.8223 9.94922 14.6289 10.8447 15.5723 10.8447ZM7.64941 10.9336C8.43555 10.9336 9.09863 10.1885 9.09863 9.24512C9.09863 8.34961 8.44922 7.63184 7.64941 7.63184C6.87012 7.63184 6.21387 8.36328 6.21387 9.25879C6.21387 10.1885 6.87695 10.9336 7.64941 10.9336ZM3.88965 18.3848C2.91211 18.3848 2.41992 17.9678 2.41992 17.1543C2.41992 14.8848 4.75781 12.8203 7.64941 12.8203C8.71582 12.8203 9.7959 13.1074 10.6641 13.6475C10.2949 13.8867 10.0078 14.1738 9.78223 14.4951C9.1875 14.167 8.41504 13.9756 7.64941 13.9756C5.47559 13.9756 3.62988 15.4795 3.62988 17.0518C3.62988 17.168 3.68457 17.2295 3.81445 17.2295H8.62695C8.5791 17.6807 8.83203 18.166 9.20117 18.3848H3.88965ZM11.3066 18.3848C10.1309 18.3848 9.56348 18.0088 9.56348 17.209C9.56348 15.3428 11.9014 12.8271 15.5723 12.8271C19.2432 12.8271 21.5811 15.3428 21.5811 17.209C21.5811 18.0088 21.0137 18.3848 19.8311 18.3848H11.3066ZM11.0811 17.2021H20.0635C20.2207 17.2021 20.2822 17.1543 20.2822 17.0244C20.2822 15.9785 18.5938 14.0098 15.5723 14.0098C12.5508 14.0098 10.8555 15.9785 10.8555 17.0244C10.8555 17.1543 10.917 17.2021 11.0811 17.2021Z" fill="currentColor"/>
</svg>
