<svg width="15" height="15" viewBox="0 0 15 15" fill="none" xmlns="http://www.w3.org/2000/svg">
<path d="M7.06152 14.123C3.16504 14.123 0 10.958 0 7.06152C0 3.16504 3.16504 0 7.06152 0C10.958 0 14.123 3.16504 14.123 7.06152C14.123 10.958 10.958 14.123 7.06152 14.123ZM7.06152 12.7285C10.1992 12.7285 12.7354 10.1992 12.7354 7.06152C12.7354 3.92383 10.1992 1.3877 7.06152 1.3877C3.92383 1.3877 1.3877 3.92383 1.3877 7.06152C1.3877 10.1992 3.92383 12.7285 7.06152 12.7285ZM3.60254 7.90918C3.29492 7.90918 3.0625 7.66992 3.0625 7.36914C3.0625 7.06152 3.29492 6.8291 3.60254 6.8291H6.51465V2.88477C6.51465 2.58398 6.75391 2.34473 7.05469 2.34473C7.3623 2.34473 7.60156 2.58398 7.60156 2.88477V7.36914C7.60156 7.66992 7.3623 7.90918 7.05469 7.90918H3.60254Z" fill="white" fill-opacity="0.8" style="fill:white;fill-opacity:0.8;"/>
</svg>
